<svg width="180" height="180" viewBox="0 0 180 180" xmlns="http://www.w3.org/2000/svg" role="img" aria-label="Tostadero Wellington">
  <rect width="180" height="180" fill="#004873" />
  <circle cx="90" cy="90" r="75" fill="none" stroke="#f8f5ef" stroke-width="10" />
  <path d="M73 74h34l9 58H64l9-58Z" fill="#f8f5ef" />
  <path d="M65 66h50v12H65z" fill="#f8f5ef" />
  <path d="M64 55 90 32l27 23v9H64z" fill="#f8f5ef" />
  <path d="M83 50h16v15H83z" fill="#004873" />
  <path d="M102 61 141 50v31l-39-9z" fill="#f8f5ef" />
  <path d="M24 100c18-3 29-18 47-14 8 2 13 6 19 9M112 90c16-6 30-8 44 5" fill="none" stroke="#f8f5ef" stroke-width="7" stroke-linecap="round" />
  <path d="M31 121c20 3 33-1 48-4 13-3 24-1 38 4 12 4 24 4 35 0M41 139c19-1 29-6 47-5 13 0 23 8 40 8 8 0 15-2 23-5" fill="none" stroke="#f8f5ef" stroke-width="7" stroke-linecap="round" />
</svg>
