<svg width="134" height="30" viewBox="0 0 134 30" fill="none" xmlns="http://www.w3.org/2000/svg">
<path d="M67.3834 13.1808L71.3055 7.40972H77.6521L72.0186 15.7457L77.8661 24.5091H71.4481L67.3834 18.3818V24.5091H62.1064V0H67.3834V13.1808Z" fill="black"/>
<path d="M133.561 12.7526V24.5796H128.284V12.8951C128.284 11.6839 127.286 10.7577 126.145 10.7577C124.933 10.7577 124.005 11.7551 124.005 12.8951V24.5796H118.729V0.0705566H124.005V7.97902C125.004 7.1953 126.287 6.76781 127.642 6.76781C130.851 6.76781 133.561 9.40396 133.561 12.7526Z" fill="black"/>
<path d="M53.9149 7.41051V8.26547C52.4887 7.33926 50.7773 6.76929 48.9232 6.76929C43.8601 6.76929 39.7241 10.9016 39.7241 15.9602C39.7241 21.0187 43.8601 25.1511 48.9232 25.1511C50.7773 25.1511 52.4887 24.5811 53.9149 23.6549V24.5811H59.1919V7.41051H53.9149V7.41051ZM49.7076 20.4488C47.1404 20.4488 45.0011 18.3826 45.0011 15.7464C45.0011 13.1815 47.0691 11.0441 49.7076 11.0441C52.2748 11.0441 54.4141 13.1103 54.4141 15.7464C54.3428 18.3113 52.2748 20.4488 49.7076 20.4488Z" fill="black"/>
<path d="M91.9954 7.41051V8.26547C90.5692 7.33926 88.8577 6.76929 87.0037 6.76929C81.9406 6.76929 77.8047 10.9016 77.8047 15.9602C77.8047 21.0187 81.9406 25.1511 87.0037 25.1511C88.8577 25.1511 90.5692 24.5811 91.9954 23.6549V24.5811H97.2723V7.41051H91.9954V7.41051ZM87.7881 20.4488C85.2209 20.4488 83.0816 18.3826 83.0816 15.7464C83.0816 13.1815 85.1496 11.0441 87.7881 11.0441C90.3553 11.0441 92.4945 13.1103 92.4945 15.7464C92.4945 18.3113 90.4266 20.4488 87.7881 20.4488Z" fill="black"/>
<path d="M104.968 19.0238C104.968 19.3801 105.111 19.6651 105.254 19.8788C105.396 20.1638 105.61 20.3063 105.895 20.52C106.181 20.6625 106.537 20.805 106.894 20.8763C107.322 20.9475 107.678 21.0188 108.106 21.0188C109.033 21.0188 109.746 20.8763 110.245 20.5913C110.602 20.3775 110.816 20.0925 110.816 19.7363C110.816 19.5938 110.816 19.4513 110.744 19.3801C110.673 19.3088 110.602 19.1663 110.317 19.0238C110.031 18.8813 109.675 18.7388 109.247 18.5963C108.748 18.4538 108.106 18.3114 107.393 18.1689C106.395 17.9551 105.468 17.7414 104.612 17.3851C103.756 17.1001 103.043 16.6727 102.401 16.2452C101.759 15.8177 101.26 15.2477 100.904 14.6065C100.547 13.9653 100.333 13.2528 100.333 12.4691C100.333 11.6854 100.547 10.9729 100.904 10.2604C101.26 9.54793 101.831 8.9067 102.472 8.40797C103.114 7.90924 103.97 7.48175 104.897 7.19676C105.824 6.91178 106.894 6.76929 108.035 6.76929C109.247 6.76929 110.388 6.91178 111.315 7.19676C112.313 7.48175 113.169 7.90924 113.882 8.40797C114.595 8.9067 115.166 9.54793 115.522 10.3317C115.879 11.0441 116.093 11.8991 116.093 12.7541H110.673C110.673 12.2553 110.459 11.8991 110.103 11.5429C109.675 11.1866 109.033 11.0441 108.035 11.0441C107.179 11.0441 106.537 11.1866 106.109 11.4716C105.753 11.7566 105.61 11.9703 105.61 12.3266C105.61 12.4691 105.61 12.6116 105.681 12.7541C105.753 12.8966 105.824 12.9678 106.038 13.1103C106.252 13.2528 106.537 13.3953 106.965 13.5378C107.393 13.6803 107.963 13.7515 108.605 13.894C109.675 14.0365 110.602 14.2503 111.529 14.5352C112.456 14.8202 113.24 15.1765 113.882 15.604C114.595 16.0314 115.166 16.6014 115.522 17.2426C115.95 17.8839 116.164 18.7388 116.164 19.5938C116.164 20.4488 115.95 21.2325 115.522 21.945C115.094 22.6574 114.524 23.2274 113.811 23.7261C113.098 24.2249 112.242 24.5811 111.244 24.8661C110.245 25.1511 109.176 25.2936 107.963 25.2936C106.68 25.2936 105.468 25.1511 104.469 24.7949C103.471 24.4386 102.544 24.0111 101.902 23.4412C101.189 22.8712 100.618 22.1587 100.262 21.4462C99.9053 20.6625 99.6914 19.95 99.6914 19.1663L104.968 19.0238Z" fill="black"/>
<path d="M28.3874 29.4964L34.0208 19.6643L22.6826 0H11.3442L28.3874 29.4964Z" fill="black"/>
<path d="M22.6825 19.6631L28.3873 29.4952H17.049L11.3442 19.6631H22.6825Z" fill="black"/>
<path d="M5.63353 9.83008H17.0432L5.63353 29.4944L0 19.6622L5.63353 9.83008Z" fill="black"/>
</svg>
