<svg width="122" height="24" viewBox="0 0 122 24" fill="none" xmlns="http://www.w3.org/2000/svg">
<rect x="0.588379" width="7.6629" height="3.20334" rx="1.60167" fill="black"/>
<rect x="8.25293" y="20.6335" width="7.6629" height="3.20334" rx="1.60167" fill="black"/>
<rect y="19.3574" width="16.486" height="3.20334" rx="1.60167" transform="rotate(-20.7942 0 19.3574)" fill="black"/>
<rect y="13.3467" width="16.486" height="3.20334" rx="1.60167" transform="rotate(-20.7942 0 13.3467)" fill="black"/>
<rect y="7.4541" width="16.486" height="3.20334" rx="1.60167" transform="rotate(-20.7942 0 7.4541)" fill="black"/>
<path d="M30.7705 9.91761V5.4307H34.72C35.0962 5.4307 35.4544 5.46652 35.7948 5.53817C36.153 5.59191 36.4664 5.69938 36.7351 5.86058C37.0038 6.02179 37.2187 6.24569 37.38 6.53228C37.5412 6.81887 37.6218 7.18606 37.6218 7.63385C37.6218 8.43989 37.38 9.02202 36.8963 9.38026C36.4127 9.7385 35.7948 9.91761 35.0425 9.91761H30.7705ZM26.5522 2.15283V21.3364H35.8485C36.7083 21.3364 37.5412 21.2289 38.3472 21.014C39.1711 20.7991 39.8966 20.4677 40.5235 20.0199C41.1683 19.5721 41.6788 18.9989 42.0549 18.3004C42.4311 17.5839 42.6192 16.742 42.6192 15.7748C42.6192 14.5747 42.3236 13.5537 41.7325 12.7119C41.1594 11.8521 40.2817 11.252 39.0995 10.9117C39.9593 10.4997 40.6041 9.97135 41.034 9.32652C41.4818 8.6817 41.7057 7.87566 41.7057 6.90843C41.7057 6.01283 41.5534 5.26054 41.2489 4.65153C40.9623 4.04253 40.5503 3.55891 40.013 3.20067C39.4756 2.82453 38.8308 2.55585 38.0785 2.39464C37.3262 2.23344 36.4933 2.15283 35.5798 2.15283H26.5522ZM30.7705 18.0585V12.7925H35.3649C36.2784 12.7925 37.0128 13.0074 37.568 13.4373C38.1233 13.8493 38.4009 14.5478 38.4009 15.533C38.4009 16.0345 38.3114 16.4465 38.1322 16.7689C37.971 17.0913 37.7471 17.351 37.4606 17.5481C37.174 17.7272 36.8426 17.8615 36.4664 17.9511C36.0903 18.0227 35.6962 18.0585 35.2843 18.0585H30.7705Z" fill="black"/>
<path d="M48.4522 14.4045C48.4522 13.8493 48.5059 13.303 48.6134 12.7656C48.7209 12.2282 48.9 11.7536 49.1508 11.3416C49.4194 10.9296 49.7687 10.5983 50.1986 10.3475C50.6285 10.0788 51.1658 9.94448 51.8107 9.94448C52.4555 9.94448 52.9928 10.0788 53.4227 10.3475C53.8705 10.5983 54.2198 10.9296 54.4706 11.3416C54.7392 11.7536 54.9273 12.2282 55.0348 12.7656C55.1423 13.303 55.196 13.8493 55.196 14.4045C55.196 14.9598 55.1423 15.5061 55.0348 16.0435C54.9273 16.5629 54.7392 17.0376 54.4706 17.4675C54.2198 17.8794 53.8705 18.2108 53.4227 18.4616C52.9928 18.7123 52.4555 18.8377 51.8107 18.8377C51.1658 18.8377 50.6285 18.7123 50.1986 18.4616C49.7687 18.2108 49.4194 17.8794 49.1508 17.4675C48.9 17.0376 48.7209 16.5629 48.6134 16.0435C48.5059 15.5061 48.4522 14.9598 48.4522 14.4045ZM44.637 14.4045C44.637 15.5151 44.8071 16.5181 45.1475 17.4137C45.4878 18.3093 45.9714 19.0795 46.5983 19.7243C47.2252 20.3513 47.9775 20.8349 48.8552 21.1752C49.7329 21.5155 50.718 21.6857 51.8107 21.6857C52.9033 21.6857 53.8884 21.5155 54.7661 21.1752C55.6617 20.8349 56.423 20.3513 57.0499 19.7243C57.6768 19.0795 58.1604 18.3093 58.5007 17.4137C58.8411 16.5181 59.0112 15.5151 59.0112 14.4045C59.0112 13.294 58.8411 12.2909 58.5007 11.3953C58.1604 10.4818 57.6768 9.71163 57.0499 9.08471C56.423 8.43989 55.6617 7.94731 54.7661 7.60699C53.8884 7.24875 52.9033 7.06963 51.8107 7.06963C50.718 7.06963 49.7329 7.24875 48.8552 7.60699C47.9775 7.94731 47.2252 8.43989 46.5983 9.08471C45.9714 9.71163 45.4878 10.4818 45.1475 11.3953C44.8071 12.2909 44.637 13.294 44.637 14.4045Z" fill="black"/>
<path d="M74.5227 21.3364V7.44578H70.7075V14.7269C70.7075 16.142 70.4747 17.163 70.009 17.7899C69.5432 18.3989 68.7909 18.7034 67.7521 18.7034C66.8386 18.7034 66.2027 18.4257 65.8445 17.8705C65.4862 17.2973 65.3071 16.4375 65.3071 15.2912V7.44578H61.4919V15.9897C61.4919 16.8495 61.5635 17.6376 61.7068 18.3541C61.868 19.0527 62.1367 19.6527 62.5128 20.1542C62.889 20.6379 63.3995 21.014 64.0443 21.2827C64.707 21.5514 65.5489 21.6857 66.5699 21.6857C67.3759 21.6857 68.164 21.5066 68.9342 21.1483C69.7045 20.7901 70.3314 20.208 70.815 19.4019H70.8956V21.3364H74.5227Z" fill="black"/>
<path d="M77.4184 7.44578V21.3364H81.2336V14.0552C81.2336 12.6402 81.4664 11.6282 81.9322 11.0192C82.3979 10.3923 83.1502 10.0788 84.189 10.0788C85.1025 10.0788 85.7384 10.3654 86.0966 10.9386C86.4549 11.4939 86.634 12.3447 86.634 13.491V21.3364H90.4492V12.7925C90.4492 11.9327 90.3686 11.1535 90.2074 10.455C90.0641 9.7385 89.8044 9.13845 89.4283 8.65483C89.0521 8.1533 88.5327 7.76819 87.8699 7.49952C87.2251 7.21293 86.3922 7.06963 85.3712 7.06963C84.5652 7.06963 83.7771 7.25771 83.0069 7.63385C82.2366 7.99209 81.6097 8.57423 81.1261 9.38026H81.0455V7.44578H77.4184Z" fill="black"/>
<path d="M102.802 12.3357H106.537C106.483 11.4401 106.268 10.6699 105.892 10.0251C105.516 9.36235 105.023 8.81604 104.414 8.38615C103.823 7.93836 103.143 7.60699 102.372 7.39204C101.62 7.1771 100.832 7.06963 100.008 7.06963C98.8796 7.06963 97.8765 7.25771 96.9989 7.63385C96.1212 8.01 95.3779 8.5384 94.7689 9.21905C94.1599 9.88179 93.6941 10.6789 93.3717 11.6103C93.0672 12.5238 92.915 13.5179 92.915 14.5926C92.915 15.6315 93.0851 16.5898 93.4255 17.4675C93.7658 18.3272 94.2405 19.0706 94.8495 19.6975C95.4585 20.3244 96.1928 20.817 97.0526 21.1752C97.9303 21.5155 98.8886 21.6857 99.9275 21.6857C101.772 21.6857 103.286 21.2021 104.468 20.2348C105.65 19.2676 106.367 17.8615 106.618 16.0166H102.937C102.811 16.8764 102.498 17.566 101.996 18.0854C101.513 18.5869 100.814 18.8377 99.9006 18.8377C99.3095 18.8377 98.808 18.7034 98.396 18.4347C97.984 18.166 97.6527 17.8257 97.4019 17.4137C97.169 16.9838 96.9989 16.5092 96.8914 15.9897C96.7839 15.4703 96.7302 14.9598 96.7302 14.4583C96.7302 13.9388 96.7839 13.4194 96.8914 12.8999C96.9989 12.3626 97.178 11.879 97.4288 11.4491C97.6974 11.0013 98.0378 10.643 98.4497 10.3744C98.8617 10.0878 99.3722 9.94448 99.9812 9.94448C101.611 9.94448 102.552 10.7416 102.802 12.3357Z" fill="black"/>
<path d="M118.123 12.8999H111.916C111.934 12.6313 111.988 12.3268 112.078 11.9864C112.185 11.6461 112.355 11.3237 112.588 11.0192C112.839 10.7147 113.161 10.4639 113.555 10.2669C113.967 10.052 114.478 9.94448 115.087 9.94448C116.018 9.94448 116.708 10.1952 117.156 10.6968C117.621 11.1983 117.944 11.9327 118.123 12.8999ZM111.916 15.318H121.938C122.01 14.2433 121.92 13.2134 121.669 12.2282C121.419 11.2431 121.007 10.3654 120.433 9.5952C119.878 8.82499 119.162 8.21599 118.284 7.76819C117.406 7.30249 116.376 7.06963 115.194 7.06963C114.137 7.06963 113.17 7.25771 112.293 7.63385C111.433 8.01 110.689 8.52945 110.062 9.19218C109.436 9.83701 108.952 10.6072 108.612 11.5028C108.271 12.3984 108.101 13.3656 108.101 14.4045C108.101 15.4792 108.262 16.4644 108.585 17.36C108.925 18.2556 109.4 19.0258 110.009 19.6706C110.618 20.3154 111.361 20.817 112.239 21.1752C113.116 21.5155 114.102 21.6857 115.194 21.6857C116.77 21.6857 118.114 21.3275 119.224 20.611C120.335 19.8945 121.159 18.7034 121.696 17.0376H118.338C118.212 17.4675 117.872 17.8794 117.317 18.2735C116.762 18.6496 116.099 18.8377 115.329 18.8377C114.254 18.8377 113.43 18.5601 112.857 18.0048C112.284 17.4495 111.97 16.554 111.916 15.318Z" fill="black"/>
</svg>
