<svg width="85" height="31" viewBox="0 0 85 31" fill="none" xmlns="http://www.w3.org/2000/svg">
<path d="M11.5033 0.610107V5.88779H6.64967V12.8147H11.2912V18.1042H6.64967V30.1793H0.73584V0.610107H11.5033Z" fill="black"/>
<path d="M19.1011 0.610107H13.1873V30.1793H19.1011V0.610107Z" fill="black"/>
<path d="M29.9612 30.1793L26.2032 14.0871L26.2857 21.603L26.3681 30.1793H21.2554V0.610107H27.2988L30.7269 15.2651L30.6445 6.73599L30.5973 0.610107H35.7101V30.1793H29.9612Z" fill="black"/>
<path d="M37.8188 0.610107H46.1477C50.4122 0.610107 52.4856 2.68348 52.4856 6.94804V23.8413C52.4856 28.1059 50.4122 30.1793 46.1477 30.1793H37.8306V0.610107H37.8188ZM43.7327 25.1136H44.9107C46.0534 25.1136 46.56 24.6071 46.56 23.4644V7.32502C46.56 6.1823 46.0534 5.67574 44.9107 5.67574H43.7327V25.1136Z" fill="black"/>
<path d="M68.8751 19.9997V30.1781H62.9613V20.0351C62.9613 19.3165 62.6197 18.9748 61.901 18.9748H60.4167V30.1663H54.5146V0.597168H63.3383C67.0138 0.597168 68.828 2.41137 68.828 6.0869V11.7887C68.828 14.3215 67.8973 15.5938 66.2952 16.1828C68.1212 16.7012 68.8751 17.8439 68.8751 19.9997ZM61.8657 5.75705H60.4285V13.9563H61.8657C62.5843 13.9563 62.926 13.6147 62.926 12.8961V6.8173C62.9142 6.09868 62.5843 5.75705 61.8657 5.75705Z" fill="black"/>
<path d="M84.9638 19.4937V24.9363C84.9638 28.6118 83.1496 30.426 79.4741 30.426H76.1755C72.5 30.426 70.6858 28.6118 70.6858 24.9363V18.6455H76.47V24.3944C76.47 25.113 76.8117 25.4546 77.5303 25.4546H78.084C78.8026 25.4546 79.1442 25.113 79.1442 24.3944V20.8484C79.1442 19.9178 78.8497 19.4583 78.1311 18.9518L73.0655 15.1938C71.2513 13.8861 70.6976 12.6609 70.6976 10.5522V5.85179C70.6976 2.17626 72.5118 0.362061 76.1873 0.362061H79.4034C83.0789 0.362061 84.8931 2.17626 84.8931 5.85179V11.2591H79.1089V6.40548C79.1089 5.68687 78.7672 5.34523 78.0486 5.34523H77.5892C76.8706 5.34523 76.5289 5.68687 76.5289 6.40548V9.19747C76.5289 10.1281 76.8234 10.5876 77.5421 11.0941L82.6077 14.8521C84.4219 16.1598 84.9638 17.2907 84.9638 19.4937Z" fill="black"/>
</svg>
