<svg width="98" height="39" viewBox="0 0 98 39" fill="none" xmlns="http://www.w3.org/2000/svg">
<path d="M13.8162 1.23706C6.34666 1.23706 0 6.57477 0 14.7929C0 22.1811 5.6469 28.0395 13.7348 28.0395C21.2044 28.0395 27.551 22.7018 27.551 14.4837C27.5673 7.11179 21.9204 1.23706 13.8162 1.23706ZM13.8162 26.461C8.95042 26.461 5.4679 21.4813 5.4679 14.6139C5.4679 8.03938 8.77142 2.84814 13.7511 2.84814C18.6169 2.84814 22.0994 7.82782 22.0994 14.6952C22.0994 21.2535 18.7959 26.461 13.8162 26.461ZM91.2943 11.408V12.5309L92.7915 12.8238C93.3122 12.9377 93.4587 13.3445 93.1332 14.1582L89.6995 22.4089C89.5531 22.7506 89.3578 22.7506 89.2601 22.4089L86.0705 14.1582C85.7288 13.312 85.9241 12.9377 86.4448 12.8238L87.9257 12.5309V11.408H74.6954V12.5309L76.1925 12.8238C76.7133 12.9377 76.9086 13.3445 76.5668 14.1582L73.2633 22.8483C73.1168 23.19 72.9215 23.19 72.8239 22.8483L69.4716 14.1582C69.1786 13.312 69.3251 12.9377 69.8459 12.8238L71.3267 12.5309V11.408H62.9296V12.5471L63.7596 12.7262C64.3129 12.8401 64.6546 13.133 64.8824 13.6537L70.5619 27.6164H73.1331L78.8126 13.6537C79.1055 12.9214 79.4472 12.6122 80.0331 12.6122H80.2609C80.7491 12.6122 81.1071 12.7912 81.4163 13.5073L87.3561 28.007L85.7613 31.7987C84.7198 34.3211 83.955 34.7767 82.9786 34.7767C82.5717 34.7767 82.1324 34.7116 81.6767 34.7116C80.5213 34.7116 79.8215 35.5416 79.8215 36.4204C79.8215 37.4293 80.6515 38.1291 81.9371 38.1291C83.7922 38.1291 85.6149 36.6319 87.1446 33.0843L95.2 14.0931C95.5743 13.2469 96.0462 12.8726 96.8273 12.7099L97.641 12.5634V11.408H91.2943ZM39.2191 26.1843L33.0189 26.9655C30.9847 27.2258 30.3338 26.5586 30.3338 25.5171C30.3338 24.2966 31.6682 23.3202 36.3224 23.3202H36.3875C39.7562 23.3202 43.7432 21.286 43.7432 16.8596C43.7432 15.4438 43.2224 14.1582 42.246 13.1004C41.9043 12.3844 41.7578 11.587 41.8066 10.8059C41.8066 7.5349 44.0361 5.67972 46.3469 5.67972C47.3071 5.67972 47.6163 5.82619 47.6163 6.50967C47.6163 6.68868 47.5674 6.85142 47.5674 7.06297C47.5674 8.21839 48.5276 9.29244 49.9108 9.29244C51.3266 9.29244 52.2054 8.16957 52.2054 6.94906C52.2054 5.09388 50.5292 3.71063 47.4535 3.71063C43.2061 3.71063 39.9514 6.46085 39.9514 10.6594C39.9514 11.0012 40.0003 11.2615 40.0003 11.5056C38.9099 11.05 37.722 10.8222 36.534 10.8384C33.1817 10.8384 29.1784 12.8726 29.1784 17.299C29.1784 19.3332 30.3338 21.2372 32.3354 22.3438C29.3574 22.7506 27.6649 24.3454 27.6649 26.8353C27.6649 29.3577 29.6666 31.1803 33.4258 30.7409L38.8448 30.0737C41.5462 29.732 42.4413 30.7084 42.4413 32.1079C42.4413 34.5652 40.1467 36.5343 36.4526 36.5343C33.5234 36.5343 32.4331 35.4928 32.4331 34.0119L32.4819 33.2796C32.4819 32.3845 31.9286 31.7661 31.0336 31.7173C29.9921 31.7173 29.3574 32.4496 29.3574 33.5237C29.3574 35.981 31.7008 38.1616 36.4852 38.1616C41.8717 38.1616 45.2891 34.6791 45.2891 30.6595C45.3054 27.4862 42.7505 25.7449 39.2191 26.1843ZM36.4364 12.1891C38.1776 12.1891 39.5934 14.1582 39.5934 17.1688C39.5934 19.7563 38.4055 22.002 36.5503 22.002C34.7602 22.002 33.3607 20.033 33.3607 17.0224C33.3444 14.4511 34.5324 12.1891 36.4364 12.1891Z" fill="black"/>
<path d="M61.4664 25.7121V0L54.9245 1.67617V2.4573L56.7797 3.05942C57.0726 3.17333 57.1865 3.40116 57.1865 3.69408V25.6145C57.1865 26.0213 56.8448 26.3305 56.3565 26.3305L54.6967 26.3631L52.9391 26.3305C52.4509 26.3305 52.1092 26.0376 52.1092 25.6145V10.7893L45.5835 12.4492V13.2304L47.4387 13.8325C47.7316 13.9464 47.8455 14.1742 47.8455 14.4671V25.7284C47.8455 26.0702 47.6665 26.2492 47.4061 26.2817L45.8927 26.4607V27.6487H63.7122V26.4607L61.9058 26.2817C61.6617 26.2329 61.4664 26.0539 61.4664 25.7121Z" fill="black"/>
</svg>
