<svg width="134" height="31" viewBox="0 0 134 31" fill="none" xmlns="http://www.w3.org/2000/svg">
<path d="M32.8592 19.5527C34.0872 19.7864 35.9585 20.0785 37.479 20.0785C39.3503 20.0785 41.0461 19.5527 41.0461 17.7999C41.0461 16.2224 39.8766 15.9887 37.479 15.4628C33.3855 14.3527 32.3914 13.4763 32.3914 10.8471C32.3914 7.63363 35.1398 6.64038 38.4146 6.64038C40.2859 6.64038 42.0988 6.99094 43.3853 7.3415L42.9759 9.62015C41.9233 9.38644 39.9935 8.91902 38.3561 8.91902C36.5433 8.91902 35.2568 9.32801 35.2568 10.7303C35.2568 11.8988 35.8416 12.1909 39.1164 13.0089C42.6251 13.9437 43.9701 14.528 43.9701 17.8583C43.9701 21.4808 40.8707 22.474 37.7714 22.474C35.9001 22.474 33.8533 22.1819 32.4498 21.9482L32.8592 19.5527Z" fill="black"/>
<path d="M55.9555 21.5966C54.1427 22.1224 52.4468 22.4145 50.9849 22.4145C47.5347 22.4145 45.5464 20.6617 45.5464 16.6887C45.5464 13.4752 46.2481 10.9629 51.1018 10.9629C55.9555 10.9629 56.4234 13.5337 56.4234 16.6887V17.5067H48.4118C48.4118 19.3763 49.3475 20.2527 51.3942 20.2527C52.5638 20.2527 54.0258 20.019 55.6047 19.5516L55.9555 21.5966ZM53.6164 15.9292C53.6164 13.7089 53.324 12.8326 51.1018 12.8326C48.8212 12.8326 48.3533 13.7089 48.3533 15.9292H53.6164Z" fill="black"/>
<path d="M60.7528 12.1314C62.4487 11.3135 63.8522 10.9629 65.1387 10.9629C67.4194 10.9629 69.1152 12.1314 69.1152 14.7022V22.1808H66.3083V15.4033C66.3083 13.7674 65.6065 13.0663 64.32 13.0663C63.5013 13.0663 62.5657 13.3 61.1622 13.9427V22.1808H58.3552V11.1382H60.5189L60.7528 12.1314Z" fill="black"/>
<path d="M84.2638 12.4258C85.1995 11.2573 86.369 10.9067 87.3632 10.9067C88.0064 10.9067 88.5912 11.0236 89.0006 11.082L88.6497 13.127C88.3573 13.0685 87.8895 12.9517 87.3632 12.9517C86.4275 12.9517 85.4919 13.1854 84.7316 14.1786V22.0662H81.9832V11.0236H83.9129L84.2638 12.4258Z" fill="black"/>
<path d="M98.8867 11.1979H101.752L97.1324 23.0585C96.6061 24.5192 95.8459 25.2788 94.7933 25.7462C93.9746 26.1552 92.9804 26.3889 91.8109 26.5641L91.46 24.5776C92.4541 24.4024 93.1559 24.2271 93.7407 23.8765C94.3254 23.526 94.6763 23.0001 94.6763 23.0001L94.3254 22.1237L90.115 11.0811H92.9804L95.9628 19.3777L98.8867 11.1979Z" fill="black"/>
<path d="M103.674 19.5527C104.902 19.7864 106.773 20.0785 108.294 20.0785C110.165 20.0785 111.861 19.5527 111.861 17.7999C111.861 16.2224 110.692 15.9887 108.294 15.4628C104.2 14.3527 103.206 13.4763 103.206 10.8471C103.206 7.63363 105.955 6.64038 109.23 6.64038C111.101 6.64038 112.914 6.99094 114.2 7.3415L113.791 9.62015C112.738 9.38644 110.808 8.91902 109.171 8.91902C107.358 8.91902 106.072 9.32801 106.072 10.7303C106.072 11.8988 106.657 12.1909 109.931 13.0089C113.44 13.9437 114.785 14.528 114.785 17.8583C114.785 21.4808 111.686 22.474 108.586 22.474C106.715 22.474 104.668 22.1819 103.265 21.9482L103.674 19.5527Z" fill="black"/>
<path d="M117.186 22.1832V6.75854H120.051V22.1832H117.186Z" fill="black"/>
<path d="M122.625 19.5527C123.853 19.7864 125.724 20.0785 127.245 20.0785C129.116 20.0785 130.812 19.5527 130.812 17.7999C130.812 16.2224 129.642 15.9887 127.245 15.4628C123.151 14.3527 122.157 13.4763 122.157 10.8471C122.157 7.63363 124.906 6.64038 128.18 6.64038C130.052 6.64038 131.865 6.99094 133.151 7.3415L132.742 9.62015C131.689 9.38644 129.759 8.91902 128.122 8.91902C126.309 8.91902 125.023 9.32801 125.023 10.7303C125.023 11.8988 125.607 12.1909 128.882 13.0089C132.391 13.9437 133.736 14.528 133.736 17.8583C133.736 21.4808 130.637 22.474 127.537 22.474C125.666 22.474 123.619 22.1819 122.216 21.9482L122.625 19.5527Z" fill="black"/>
<path d="M75.6562 13.3039H79.8667V11.2005H75.6562V7.98706H72.8493V11.2005H70.4517V13.3039H72.8493V18.7376C72.8493 21.4836 74.1943 22.4185 76.241 22.4185C77.3521 22.4185 78.6971 22.1263 80.1006 21.7758L79.7497 19.8477C78.8141 20.0814 77.8784 20.3151 77.1767 20.3151C76.241 20.3151 75.6562 19.9645 75.6562 18.7376V14.1219V13.3039Z" fill="black"/>
<path fill-rule="evenodd" clip-rule="evenodd" d="M24.0235 5.24232C23.4387 -1.18462 0.807568 -1.18462 0.222785 5.24232L0.164307 17.3951C1.21692 22.8872 5.8367 27.9703 12.0939 30.3658C18.3511 27.9703 22.9708 22.8872 24.0235 17.3951V5.24232ZM7.00627 24.6984V19.5569C9.81323 19.5569 12.1524 17.2198 12.1524 14.4153H7.00627C7.00627 8.74793 11.6261 4.13221 17.2985 4.13221V9.27377C14.4915 9.27377 12.1524 11.6108 12.1524 14.4153H17.2985C17.2985 20.0827 12.6787 24.6984 7.00627 24.6984Z" fill="black"/>
</svg>
